#!OML:ASF F:\VICON\USERDATA\INSTALL\rory3\rory3.ASF
:FULLY-SPECIFIED
:DEGREES
63
root 0.8039463436614138 17.8849729411994 25.327345194779923 -3.9338130985067883 -0.815793659075641 2.3166638602075804
lfemur 0.9764413984798281 -3.390502125719646 -27.61233864492132
ltibia 23.05000169370258
lfoot -18.552226675060563 2.3853036330229127
ltoes 1.1699103322948163
rfemur -32.128963068780784 -2.2915723725968022 19.82883954862433
rtibia 60.818052545353154
rfoot -8.334741638986833 -10.76462932229554
rtoes 2.6010361163803264
lowerback 10.814428987795843 -0.40919802039569464 -3.0755269809122234
upperback 0.581575468884024 -0.8551840497764308 0.8657285838885861
thorax -5.356080964855067 -0.33211978414064747 2.8926470032420584
lowerneck -15.974811648621028 -2.4824046720307527 -2.456208805789892
upperneck 20.146327807748662 -3.027077844044201 0.9641033444642034
head 8.989810670612412 -1.4972669856415244 0.33336497154522476
lclavicle -9.150222587561439e-16 -7.744749522468218e-16
lhumerus -26.4825223636812 -1.1316887098049166 80.36931465437267
lradius 22.366846130057652
lwrist 5.254808264602955
lhand -29.227233632249177 22.73706210129082
lfingers 7.125020000000057
lthumb -2.570828690270082 52.709104940717
rclavicle -9.150222587561439e-16 -7.744749522468218e-16
rhumerus -31.788825519751793 -22.266929005503414 -77.2173865451716
rradius 24.010977272481995
rwrist 4.325003685102101
rhand -17.177843574795364 30.235765098172173
rfingers 7.125020000000057
rthumb 9.064208646518118 -6.92381663757983
64
root 0.7905077490523336 17.850678860235085 26.103961213707844 -3.1419010118781623 -0.19570997959211234 2.776784811383552
lfemur 4.499740736021572 -2.87279954471695 -28.097137227542767
ltibia 19.02554902769353
lfoot -19.207743254925806 1.9233796913686598
ltoes 0.286906578703646
rfemur -32.98338142730529 -0.24832235361699473 18.560897781165032
rtibia 45.2917947587193
rfoot -8.263104414283474 -13.751840461041915
rtoes 0.296831388152095
lowerback 10.432976958068599 -0.7389680390930623 -3.8086214617337157
upperback 0.5272740205381272 -1.3677468691963166 0.9246440095889077
thorax -5.178608642287835 -0.5691020060717972 3.422110669411478
lowerneck -16.087750669167832 -2.529860394209812 -2.5695462517804772
upperneck 19.79996459710344 -3.092130122665525 1.1034226969073866
head 8.897973984539744 -1.518759894096105 0.3936069848585351
lclavicle -1.039812566439423e-15 -8.711004773094964e-16
lhumerus -24.45337395227684 -3.043787993131365 80.04629188577763
lradius 23.76485353487589
lwrist 6.000905195766739
lhand -29.2180103234252 23.36000150997353
lfingers 7.125020000000057
lthumb -2.5619738792106883 53.328865383041624
rclavicle -1.039812566439423e-15 -8.711004773094964e-16
rhumerus -32.78586422292808 -22.342021376093992 -76.99088669360785
rradius 23.662669532637295
rwrist 4.1817179001508284
rhand -17.162019047292187 30.324225663210935
rfingers 7.125020000000057
rthumb 9.079465527811802 -6.729503079349973
65
root 0.7781750744336261 17.802773414825243 26.789024284609678 -2.305894493933281 0.44431902967818826 3.250597480365657
lfemur 8.48102829641282 -2.4923478353315627 -28.410920857960782
ltibia 14.565199682133244
lfoot -19.643430152630543 1.1942217953600336
ltoes -1.4076251526077446
rfemur -32.8297241468941 2.450936551278761 16.986145583443864
rtibia 29.768939690235715
rfoot -7.972955285283861 -16.649184267348353
rtoes -1.8301122203930573
lowerback 9.97404091235056 -1.0316166691211373 -4.506577955789306
upperback 0.4494452430288473 -1.823696858464508 0.9660901076366893
thorax -4.97289007818481 -0.7802583805271758 3.9153801956606187
lowerneck -16.22022556917637 -2.5640169311573997 -2.6198420546935184
upperneck 19.559331678696147 -3.1482424011114354 1.2117085388488782
head 8.845031919124022 -1.534842612928307 0.4326425482593135
lclavicle -1.0886229688384619e-15 -9.08894504705223e-16
lhumerus -22.486748037382633 -4.414138453612496 79.62363540836903
lradius 25.0203182027742
lwrist 6.670343773728641
lhand -29.30103486700245 23.794200054266486
lfingers 7.125020000000056
lthumb -2.642205205107269 53.7576370490917
rclavicle -1.0886229688384619e-15 -9.08894504705223e-16
rhumerus -33.69525832795718 -22.994075151375874 -76.42355634957852
rradius 22.802477604417405
rwrist 4.730373648082286
rhand -17.144083374419196 30.39752566653066
rfingers 7.125020000000056
rthumb 9.096740712893709 -6.57445381165555
66
root 0.7570464020910971 17.735487219345185 27.170010679508042 -1.6311584133579653 1.0411917163018125 3.587483235777396
lfemur 12.17772168773256 -2.5455103786317954 -28.549351035549197
ltibia 10.85524659888868
lfoot -19.966051697636527 0.24555171823635025
ltoes -4.308849467506182
rfemur -32.24686435836625 4.834678329956349 15.657912458628413
rtibia 17.601290545173796
rfoot -7.882277021379307 -18.177425450812027
rtoes -3.980027103855364
lowerback 9.579276462884167 -1.2783951204165693 -5.073100385548065
upperback 0.37322198771011666 -2.2050759513132987 1.0148412348217621
thorax -4.814205853690911 -0.9569221008743661 4.311120506218165
lowerneck -16.375250389557454 -2.600749339613 -2.6400805617772414
upperneck 19.407858418047482 -3.207641360383009 1.2655525080034553
head 8.826683257854278 -1.5544273389193015 0.4477162819655878
lclavicle -1.232381939644237e-15 -1.0202074585054897e-15
lhumerus -20.954241550570128 -5.174044513010799 79.18994832027794
lradius 25.825962234733616
lwrist 7.069320167887069
lhand -29.592280626903477 23.557995394263394
lfingers 7.125020000000056
lthumb -2.923489877787736 53.51634082024593
rclavicle -1.232381939644237e-15 -1.0202074585054897e-15
rhumerus -34.64938348775677 -24.327173428830932 -75.58138916534172
rradius 21.30945935526951
rwrist 5.760165295129609
rhand -17.1758659520368 30.363096370346646
rfingers 7.125020000000056
rthumb 9.066034629470536 -6.5579742047028
67
root 0.7367659303248205 17.667324961567804 27.923678151000097 -1.2029497549763244 1.5674505269182806 3.7036397106158705
lfemur 15.468301386779729 -3.0818163088960366 -28.368058957947653
ltibia 9.597648818311349
lfoot -19.547424078585223 -0.8136512321874436
ltoes -8.293197509701162
rfemur -31.459369447843713 6.113155756041873 15.310008667092793
rtibia 11.849295468279642
rfoot -7.33489691930002 -17.435653749887326
rtoes -5.480277362513977
lowerback 9.396282770684225 -1.438128590447735 -5.293786059078796
upperback 0.3352494739292699 -2.4358831060380406 1.1375939038109624
thorax -4.699327286493597 -1.0657623527049531 4.6204165968755015
lowerneck -16.51590456452488 -2.6125298735432283 -2.63900148990683
upperneck 19.428047919038864 -3.2169148330804376 1.280616303966469
head 8.865027135249486 -1.558600427600779 0.44898850575394317
lclavicle -1.062706010900598e-15 -8.888268731269295e-16
lhumerus -19.789540445964047 -5.162147035599155 79.00791764838904
lradius 27.031798999591594
lwrist 7.505286026624715
lhand -30.056209970291 22.770986006453374
lfingers 7.125020000000057
lthumb -3.3714983183768785 52.72595218894161
rclavicle -1.062706010900598e-15 -8.888268731269295e-16
rhumerus -35.53145248270968 -25.888033029575404 -74.24272841747718
rradius 20.25677659892478
rwrist 7.417854338425788
rhand -17.24531442625052 30.324140009456755
rfingers 7.125020000000057
rthumb 8.99900510664321 -6.550418231824746
68
root 0.7011221926765955 17.60736012962794 28.546475428441212 -1.1607319373074483 1.823739262366376 3.356080895308913
lfemur 17.512647317854285 -4.036655911206094 -27.929909651081747
ltibia 10.72239794220696
lfoot -17.99458803284324 -2.3942300728828187
ltoes -13.230250029352305
rfemur -31.269189361209847 6.091992512927918 15.997559247267645
rtibia 11.805986867090155
rfoot -6.21466591637172 -14.845461814105885
rtoes -5.739452124615038
lowerback 9.333013484993609 -1.5743554751601097 -5.1833538970401305
upperback 0.31458065335669066 -2.5977278124576015 1.3569082444734382
thorax -4.685886967729475 -1.1449124110061786 4.7690786638801415
lowerneck -16.65498931372739 -2.591896769885355 -2.631624499985224
upperneck 19.512217616185623 -3.164912160320111 1.1658011500549317
head 8.920607403458654 -1.54366664764427 0.4131053909086104
lclavicle -1.2060321990239002e-15 -9.998047448434972e-16
lhumerus -19.4645636571415 -4.736262425782664 78.95272452683187
lradius 27.455238822115923
lwrist 7.60442653242049
lhand -30.711494923271726 21.505022949145253
lfingers 7.125020000000056
lthumb -4.004278629120944 51.4571124032991
rclavicle -1.2060321990239002e-15 -9.998047448434972e-16
rhumerus -36.79612595230971 -28.087306667246192 -72.66723135554494
rradius 18.501770899383295
rwrist 9.437831129109977
rhand -17.37164275694559 30.161780557244427
rfingers 7.125020000000056
rthumb 8.877097867878284 -6.748546299340479
